<svg width="52" height="35" viewBox="0 0 52 35" fill="none" xmlns="http://www.w3.org/2000/svg">
<path d="M35.2118 14.705L34.5884 14.2825C34.3922 14.1505 34.1311 14.0778 33.8522 14.0778C33.5733 14.0778 33.312 14.1505 33.1158 14.2825L26.0043 19.0692L18.8847 14.2772C18.6888 14.1452 18.4275 14.0726 18.1486 14.0726C17.8698 14.0726 17.6083 14.1452 17.4123 14.2772L16.7887 14.6971C16.3827 14.9701 16.3827 15.4149 16.7887 15.688L25.2655 21.4141C25.4614 21.5459 25.7224 21.6388 26.0037 21.6388H26.007C26.286 21.6388 26.547 21.5458 26.7429 21.4141L35.2118 15.7035C35.408 15.5717 35.5157 15.3907 35.516 15.203C35.516 15.0152 35.408 14.8367 35.2118 14.705Z" fill="white"/>
</svg>
